<mxfile host="app.diagrams.net" modified="2024-04-30T06:10:44.315Z" agent="Mozilla/5.0 (Macintosh; Intel Mac OS X 10_15_7) AppleWebKit/537.36 (KHTML, like Gecko) Chrome/120.0.0.0 Safari/537.36" etag="mbcvpWDR72064f3rvFnr" version="24.2.5" type="github">
  <diagram name="第 1 页" id="gTe-RsswgZ9a3CknWbWT">
    <mxGraphModel dx="1434" dy="707" grid="1" gridSize="10" guides="1" tooltips="1" connect="1" arrows="1" fold="1" page="1" pageScale="1" pageWidth="827" pageHeight="1169" math="0" shadow="0">
      <root>
        <mxCell id="0" />
        <mxCell id="1" parent="0" />
        <mxCell id="IhgrDkRPDF99YvVrVyJ_-20" value="" style="rounded=0;whiteSpace=wrap;html=1;fillColor=#FFFFFF;" parent="1" vertex="1">
          <mxGeometry x="353" y="151" width="207" height="188" as="geometry" />
        </mxCell>
        <mxCell id="IhgrDkRPDF99YvVrVyJ_-23" value="" style="edgeStyle=orthogonalEdgeStyle;rounded=0;orthogonalLoop=1;jettySize=auto;html=1;strokeColor=#62649F;strokeWidth=3;" parent="1" source="IhgrDkRPDF99YvVrVyJ_-1" target="IhgrDkRPDF99YvVrVyJ_-20" edge="1">
          <mxGeometry relative="1" as="geometry" />
        </mxCell>
        <mxCell id="IhgrDkRPDF99YvVrVyJ_-1" value="" style="rounded=0;whiteSpace=wrap;html=1;fillColor=#E8E8E8;" parent="1" vertex="1">
          <mxGeometry x="43" y="60" width="240" height="370" as="geometry" />
        </mxCell>
        <mxCell id="IhgrDkRPDF99YvVrVyJ_-3" value="&lt;font color=&quot;#ffffff&quot;&gt;事件源&lt;/font&gt;" style="text;html=1;align=center;verticalAlign=middle;whiteSpace=wrap;rounded=0;fillColor=#2C649F;strokeColor=#b85450;" parent="1" vertex="1">
          <mxGeometry x="43" y="60" width="240" height="40" as="geometry" />
        </mxCell>
        <mxCell id="IhgrDkRPDF99YvVrVyJ_-5" value="&lt;font color=&quot;#ffffff&quot;&gt;CMDB&lt;/font&gt;" style="text;html=1;align=center;verticalAlign=middle;whiteSpace=wrap;rounded=0;fillColor=#9C6460;strokeColor=#9673a6;" parent="1" vertex="1">
          <mxGeometry x="83" y="130" width="160" height="30" as="geometry" />
        </mxCell>
        <mxCell id="IhgrDkRPDF99YvVrVyJ_-6" value="&lt;font color=&quot;#ffffff&quot;&gt;云监控&lt;/font&gt;" style="text;html=1;align=center;verticalAlign=middle;whiteSpace=wrap;rounded=0;fillColor=#9C6460;strokeColor=#9673a6;" parent="1" vertex="1">
          <mxGeometry x="83" y="180" width="160" height="30" as="geometry" />
        </mxCell>
        <mxCell id="IhgrDkRPDF99YvVrVyJ_-7" value="&lt;font color=&quot;#ffffff&quot;&gt;中间件&lt;/font&gt;" style="text;html=1;align=center;verticalAlign=middle;whiteSpace=wrap;rounded=0;fillColor=#9C6460;strokeColor=#9673a6;" parent="1" vertex="1">
          <mxGeometry x="83" y="230" width="160" height="30" as="geometry" />
        </mxCell>
        <mxCell id="IhgrDkRPDF99YvVrVyJ_-8" value="&lt;font color=&quot;#ffffff&quot;&gt;RDS&lt;/font&gt;" style="text;html=1;align=center;verticalAlign=middle;whiteSpace=wrap;rounded=0;fillColor=#9C6460;strokeColor=#9673a6;" parent="1" vertex="1">
          <mxGeometry x="83" y="280" width="160" height="30" as="geometry" />
        </mxCell>
        <mxCell id="IhgrDkRPDF99YvVrVyJ_-9" value="&lt;font color=&quot;#ffffff&quot;&gt;Kubernetes&lt;/font&gt;" style="text;html=1;align=center;verticalAlign=middle;whiteSpace=wrap;rounded=0;fillColor=#9C6460;strokeColor=#9673a6;" parent="1" vertex="1">
          <mxGeometry x="83" y="330" width="160" height="30" as="geometry" />
        </mxCell>
        <mxCell id="IhgrDkRPDF99YvVrVyJ_-11" value="&lt;font color=&quot;#ffffff&quot;&gt;Kafka&lt;/font&gt;" style="shape=cylinder3;whiteSpace=wrap;html=1;boundedLbl=1;backgroundOutline=1;size=15;direction=south;fillColor=#63b24c;strokeColor=#ffffff;" parent="1" vertex="1">
          <mxGeometry x="381.5" y="230" width="150" height="35" as="geometry" />
        </mxCell>
        <mxCell id="IhgrDkRPDF99YvVrVyJ_-21" value="&lt;font color=&quot;#ffffff&quot;&gt;事件总线&lt;/font&gt;" style="text;html=1;align=center;verticalAlign=middle;whiteSpace=wrap;rounded=0;fillColor=#2C649F;strokeColor=#b85450;" parent="1" vertex="1">
          <mxGeometry x="353" y="151" width="207" height="39" as="geometry" />
        </mxCell>
        <mxCell id="IhgrDkRPDF99YvVrVyJ_-51" value="" style="edgeStyle=orthogonalEdgeStyle;rounded=0;orthogonalLoop=1;jettySize=auto;html=1;strokeColor=#62649F;strokeWidth=3;" parent="1" edge="1">
          <mxGeometry relative="1" as="geometry">
            <mxPoint x="560" y="244.5" as="sourcePoint" />
            <mxPoint x="630" y="244.5" as="targetPoint" />
          </mxGeometry>
        </mxCell>
        <mxCell id="RKCQVsclAK-cbtCePVyO-1" value="" style="rounded=0;whiteSpace=wrap;html=1;fillColor=#FFFFFF;" vertex="1" parent="1">
          <mxGeometry x="630" y="151" width="207" height="188" as="geometry" />
        </mxCell>
        <mxCell id="RKCQVsclAK-cbtCePVyO-3" value="&lt;font color=&quot;#ffffff&quot;&gt;事件目标&lt;/font&gt;" style="text;html=1;align=center;verticalAlign=middle;whiteSpace=wrap;rounded=0;fillColor=#2C649F;strokeColor=#b85450;" vertex="1" parent="1">
          <mxGeometry x="630" y="151" width="207" height="39" as="geometry" />
        </mxCell>
        <mxCell id="RKCQVsclAK-cbtCePVyO-4" value="&lt;font color=&quot;#ffffff&quot;&gt;Elasticsearch&lt;/font&gt;" style="text;html=1;align=center;verticalAlign=middle;whiteSpace=wrap;rounded=0;fillColor=#9C6460;strokeColor=#9673a6;" vertex="1" parent="1">
          <mxGeometry x="653.5" y="230" width="160" height="30" as="geometry" />
        </mxCell>
      </root>
    </mxGraphModel>
  </diagram>
</mxfile>
